<?xml version="1.0" encoding="UTF-8" standalone="no"?>
<!DOCTYPE svg PUBLIC "-//W3C//DTD SVG 1.1//EN"
 "http://www.w3.org/Graphics/SVG/1.1/DTD/svg11.dtd">
<!-- Generated by graphviz version 2.43.0 (0)
 -->
<!-- Title: G Pages: 1 -->
<svg width="832pt" height="160pt"
 viewBox="0.00 0.00 832.00 160.00" xmlns="http://www.w3.org/2000/svg" xmlns:xlink="http://www.w3.org/1999/xlink">
<g id="graph0" class="graph" transform="scale(1 1) rotate(0) translate(18 142)">
<title>G</title>
<polygon fill="white" stroke="transparent" points="-18,18 -18,-142 814,-142 814,18 -18,18"/>
<text text-anchor="middle" x="398" y="-104" font-family="Arial" font-size="20.00">CE Lab 2: analysis flow</text>
<!-- mpt -->
<g id="node1" class="node">
<title>mpt</title>
<polygon fill="#eef7f9" stroke="#39748a" points="148,-66 0,-66 0,-62 -4,-62 -4,-58 0,-58 0,-36 -4,-36 -4,-32 0,-32 0,-28 148,-28 148,-66"/>
<polyline fill="none" stroke="#39748a" points="0,-62 4,-62 4,-58 0,-58 "/>
<polyline fill="none" stroke="#39748a" points="0,-36 4,-36 4,-32 0,-32 "/>
<text text-anchor="middle" x="74" y="-50.2" font-family="Arial" font-size="11.00">EC&#45;Lab .mpt files</text>
<text text-anchor="middle" x="74" y="-38.2" font-family="Arial" font-size="11.00">F/HER studies, F/pH study</text>
</g>
<!-- reader -->
<g id="node2" class="node">
<title>reader</title>
<polygon fill="#eef7f9" stroke="#39748a" points="305,-66 184,-66 184,-62 180,-62 180,-58 184,-58 184,-36 180,-36 180,-32 184,-32 184,-28 305,-28 305,-66"/>
<polyline fill="none" stroke="#39748a" points="184,-62 188,-62 188,-58 184,-58 "/>
<polyline fill="none" stroke="#39748a" points="184,-36 188,-36 188,-32 184,-32 "/>
<text text-anchor="middle" x="244.5" y="-50.2" font-family="Arial" font-size="11.00">read_mpt()</text>
<text text-anchor="middle" x="244.5" y="-38.2" font-family="Arial" font-size="11.00">parse Ewe/V, &lt;I&gt;/mA</text>
</g>
<!-- mpt&#45;&gt;reader -->
<g id="edge1" class="edge">
<title>mpt&#45;&gt;reader</title>
<path fill="none" stroke="#39748a" d="M148.42,-47C156.87,-47 165.46,-47 173.86,-47"/>
<polygon fill="#39748a" stroke="#39748a" points="173.98,-50.5 183.98,-47 173.98,-43.5 173.98,-50.5"/>
</g>
<!-- calc -->
<g id="node3" class="node">
<title>calc</title>
<polygon fill="#eef7f9" stroke="#39748a" points="486,-72 341,-72 341,-68 337,-68 337,-64 341,-64 341,-30 337,-30 337,-26 341,-26 341,-22 486,-22 486,-72"/>
<polyline fill="none" stroke="#39748a" points="341,-68 345,-68 345,-64 341,-64 "/>
<polyline fill="none" stroke="#39748a" points="341,-30 345,-30 345,-26 341,-26 "/>
<text text-anchor="middle" x="413.5" y="-56.2" font-family="Arial" font-size="11.00">Derived values</text>
<text text-anchor="middle" x="413.5" y="-44.2" font-family="Arial" font-size="11.00">E vs RHE, current density,</text>
<text text-anchor="middle" x="413.5" y="-32.2" font-family="Arial" font-size="11.00">overpotential</text>
</g>
<!-- reader&#45;&gt;calc -->
<g id="edge2" class="edge">
<title>reader&#45;&gt;calc</title>
<path fill="none" stroke="#39748a" d="M305.32,-47C313.59,-47 322.21,-47 330.79,-47"/>
<polygon fill="#39748a" stroke="#39748a" points="330.84,-50.5 340.84,-47 330.84,-43.5 330.84,-50.5"/>
</g>
<!-- plot -->
<g id="node4" class="node">
<title>plot</title>
<polygon fill="#eef7f9" stroke="#39748a" points="627.5,-94 534.5,-94 534.5,-90 530.5,-90 530.5,-86 534.5,-86 534.5,-64 530.5,-64 530.5,-60 534.5,-60 534.5,-56 627.5,-56 627.5,-94"/>
<polyline fill="none" stroke="#39748a" points="534.5,-90 538.5,-90 538.5,-86 534.5,-86 "/>
<polyline fill="none" stroke="#39748a" points="534.5,-64 538.5,-64 538.5,-60 534.5,-60 "/>
<text text-anchor="middle" x="581" y="-78.2" font-family="Arial" font-size="11.00">code.py</text>
<text text-anchor="middle" x="581" y="-66.2" font-family="Arial" font-size="11.00">plots + Tafel fits</text>
</g>
<!-- calc&#45;&gt;plot -->
<g id="edge3" class="edge">
<title>calc&#45;&gt;plot</title>
<path fill="none" stroke="#39748a" d="M486.13,-59.12C498.82,-61.27 511.87,-63.47 524.05,-65.53"/>
<polygon fill="#39748a" stroke="#39748a" points="523.61,-69.01 534.06,-67.23 524.78,-62.11 523.61,-69.01"/>
</g>
<!-- excel -->
<g id="node5" class="node">
<title>excel</title>
<polygon fill="#eef7f9" stroke="#39748a" points="640,-38 522,-38 522,-34 518,-34 518,-30 522,-30 522,-8 518,-8 518,-4 522,-4 522,0 640,0 640,-38"/>
<polyline fill="none" stroke="#39748a" points="522,-34 526,-34 526,-30 522,-30 "/>
<polyline fill="none" stroke="#39748a" points="522,-8 526,-8 526,-4 522,-4 "/>
<text text-anchor="middle" x="581" y="-22.2" font-family="Arial" font-size="11.00">generate_excel.py</text>
<text text-anchor="middle" x="581" y="-10.2" font-family="Arial" font-size="11.00">parameters + sheets</text>
</g>
<!-- calc&#45;&gt;excel -->
<g id="edge5" class="edge">
<title>calc&#45;&gt;excel</title>
<path fill="none" stroke="#39748a" d="M486.13,-34.88C494.73,-33.43 503.5,-31.94 512.04,-30.5"/>
<polygon fill="#39748a" stroke="#39748a" points="512.68,-33.94 521.96,-28.82 511.51,-27.04 512.68,-33.94"/>
</g>
<!-- png -->
<g id="node6" class="node">
<title>png</title>
<polygon fill="#eef7f9" stroke="#39748a" points="788,-93 684,-93 684,-89 680,-89 680,-85 684,-85 684,-65 680,-65 680,-61 684,-61 684,-57 788,-57 788,-93"/>
<polyline fill="none" stroke="#39748a" points="684,-89 688,-89 688,-85 684,-85 "/>
<polyline fill="none" stroke="#39748a" points="684,-65 688,-65 688,-61 684,-61 "/>
<text text-anchor="middle" x="736" y="-72.2" font-family="Arial" font-size="11.00">Four graph PNGs</text>
</g>
<!-- plot&#45;&gt;png -->
<g id="edge4" class="edge">
<title>plot&#45;&gt;png</title>
<path fill="none" stroke="#39748a" d="M627.91,-75C642.21,-75 658.22,-75 673.42,-75"/>
<polygon fill="#39748a" stroke="#39748a" points="673.77,-78.5 683.77,-75 673.77,-71.5 673.77,-78.5"/>
</g>
<!-- xlsx -->
<g id="node7" class="node">
<title>xlsx</title>
<polygon fill="#eef7f9" stroke="#39748a" points="796,-37 676,-37 676,-33 672,-33 672,-29 676,-29 676,-9 672,-9 672,-5 676,-5 676,-1 796,-1 796,-37"/>
<polyline fill="none" stroke="#39748a" points="676,-33 680,-33 680,-29 676,-29 "/>
<polyline fill="none" stroke="#39748a" points="676,-9 680,-9 680,-5 676,-5 "/>
<text text-anchor="middle" x="736" y="-16.2" font-family="Arial" font-size="11.00">HER_LSV_Final.xlsx</text>
</g>
<!-- excel&#45;&gt;xlsx -->
<g id="edge6" class="edge">
<title>excel&#45;&gt;xlsx</title>
<path fill="none" stroke="#39748a" d="M640.28,-19C648.56,-19 657.15,-19 665.62,-19"/>
<polygon fill="#39748a" stroke="#39748a" points="665.87,-22.5 675.87,-19 665.87,-15.5 665.87,-22.5"/>
</g>
</g>
</svg>
